# xmcd
#
# Track frame offsets:
#	150
#	14437
#	33625
#	47973
#	65429
#	83340
#	98872
#	114940
#	132960
#	148356
#	175867
#	200838
#	218370
#	235462
#	249812
#	280228
#	294617
#
# Disc length: 4208 seconds
#
# Revision: 1
# Processed by: cddbd v1.5.1PL0 Copyright (c) Steve Scherf et al.
# Submitted via: audiograbber 1.82.01
#
DISCID=f9106e11
DTITLE=Absoluuttinen Nollapiste - SuljettuLive! Tavastia 1.11.2001
DYEAR=1900
DGENRE=Rock
TTITLE0=Kasvatus
TTITLE1=Mihin
TTITLE2=Esineker‰ilyn hitaus
TTITLE3=T‰‰ll‰ on joku
TTITLE4=Portaat
TTITLE5=Kupit on kuin olisi h‰‰t
TTITLE6=Joen silmille
TTITLE7=Sukututkimus lannistaa
TTITLE8=Joutomaa
TTITLE9=Tungos on lavaste
TTITLE10=Suvannossa ylpe‰ ilme I
TTITLE11=Suvannossa ylpe‰ ilme II
TTITLE12=Suvannossa ylpe‰ ilme III
TTITLE13=Suvannossa ylpe‰ ilme IV
TTITLE14=Suvannossa ylpe‰ ilme V
TTITLE15=Kiilakivi
TTITLE16=Olen pahoillani
EXTD=
EXTT0=
EXTT1=
EXTT2=
EXTT3=
EXTT4=
EXTT5=
EXTT6=
EXTT7=
EXTT8=
EXTT9=
EXTT10=
EXTT11=
EXTT12=
EXTT13=
EXTT14=
EXTT15=
EXTT16=
PLAYORDER=
